<mxfile host="app.diagrams.net" agent="Mozilla/5.0 (Windows NT 10.0; Win64; x64) AppleWebKit/537.36 (KHTML, like Gecko) Chrome/110.0.0.0 Safari/537.36" version="24.7.12">
  <diagram name="PÃ¡gina-1" id="badeSgl3rarpciUWfAk7">
    <mxGraphModel dx="1707" dy="395" grid="1" gridSize="10" guides="1" tooltips="1" connect="1" arrows="1" fold="1" page="1" pageScale="1" pageWidth="827" pageHeight="1169" math="0" shadow="0">
      <root>
        <mxCell id="0" />
        <mxCell id="1" parent="0" />
        <mxCell id="oYlXpJVkNZ7Khja5sfW1-8" value="" style="ellipse;whiteSpace=wrap;html=1;align=center;aspect=fixed;fillColor=none;strokeColor=none;resizable=0;perimeter=centerPerimeter;rotatable=0;allowArrows=0;points=[];outlineConnect=1;" parent="1" vertex="1">
          <mxGeometry x="-100" y="360" width="10" height="10" as="geometry" />
        </mxCell>
        <mxCell id="oYlXpJVkNZ7Khja5sfW1-72" value="" style="ellipse;whiteSpace=wrap;html=1;align=center;aspect=fixed;fillColor=none;strokeColor=none;resizable=0;perimeter=centerPerimeter;rotatable=0;allowArrows=0;points=[];outlineConnect=1;" parent="1" vertex="1">
          <mxGeometry x="122" y="250" width="10" height="10" as="geometry" />
        </mxCell>
        <mxCell id="VERpzVBWQR2P2o2Z3do2-1" value="Nivel de presentacion" style="shape=folder;fontStyle=1;spacingTop=10;tabWidth=40;tabHeight=14;tabPosition=left;html=1;whiteSpace=wrap;verticalAlign=top;" parent="1" vertex="1">
          <mxGeometry x="-283.12" y="40" width="556.25" height="170" as="geometry" />
        </mxCell>
        <mxCell id="VERpzVBWQR2P2o2Z3do2-2" value="&amp;lt;&amp;lt;component&amp;gt;&amp;gt;&lt;div&gt;&lt;b&gt;:Agente Web 360&lt;/b&gt;&lt;/div&gt;" style="html=1;dropTarget=0;whiteSpace=wrap;" parent="1" vertex="1">
          <mxGeometry x="-260" y="95" width="120" height="60" as="geometry" />
        </mxCell>
        <mxCell id="VERpzVBWQR2P2o2Z3do2-3" value="" style="shape=module;jettyWidth=8;jettyHeight=4;" parent="VERpzVBWQR2P2o2Z3do2-2" vertex="1">
          <mxGeometry x="1" width="20" height="20" relative="1" as="geometry">
            <mxPoint x="-27" y="7" as="offset" />
          </mxGeometry>
        </mxCell>
        <mxCell id="VERpzVBWQR2P2o2Z3do2-4" value="&amp;lt;&amp;lt;component&amp;gt;&amp;gt;&lt;div&gt;&lt;b&gt;:Cliente Web&lt;/b&gt;&lt;/div&gt;" style="html=1;dropTarget=0;whiteSpace=wrap;" parent="1" vertex="1">
          <mxGeometry x="150" y="95" width="110" height="60" as="geometry" />
        </mxCell>
        <mxCell id="VERpzVBWQR2P2o2Z3do2-5" value="" style="shape=module;jettyWidth=8;jettyHeight=4;" parent="VERpzVBWQR2P2o2Z3do2-4" vertex="1">
          <mxGeometry x="1" width="20" height="20" relative="1" as="geometry">
            <mxPoint x="-27" y="7" as="offset" />
          </mxGeometry>
        </mxCell>
        <mxCell id="VERpzVBWQR2P2o2Z3do2-6" value="&amp;lt;&amp;lt;component&amp;gt;&amp;gt;&lt;div&gt;&lt;b&gt;:Usuario Web&lt;/b&gt;&lt;/div&gt;" style="html=1;dropTarget=0;whiteSpace=wrap;" parent="1" vertex="1">
          <mxGeometry x="12" y="95" width="120" height="60" as="geometry" />
        </mxCell>
        <mxCell id="VERpzVBWQR2P2o2Z3do2-7" value="" style="shape=module;jettyWidth=8;jettyHeight=4;" parent="VERpzVBWQR2P2o2Z3do2-6" vertex="1">
          <mxGeometry x="1" width="20" height="20" relative="1" as="geometry">
            <mxPoint x="-27" y="7" as="offset" />
          </mxGeometry>
        </mxCell>
        <mxCell id="VERpzVBWQR2P2o2Z3do2-8" value="&amp;lt;&amp;lt;component&amp;gt;&amp;gt;&lt;div&gt;&lt;b&gt;:Usuario Movil&lt;/b&gt;&lt;/div&gt;" style="html=1;dropTarget=0;whiteSpace=wrap;" parent="1" vertex="1">
          <mxGeometry x="-120" y="95" width="120" height="60" as="geometry" />
        </mxCell>
        <mxCell id="VERpzVBWQR2P2o2Z3do2-9" value="" style="shape=module;jettyWidth=8;jettyHeight=4;" parent="VERpzVBWQR2P2o2Z3do2-8" vertex="1">
          <mxGeometry x="1" width="20" height="20" relative="1" as="geometry">
            <mxPoint x="-27" y="7" as="offset" />
          </mxGeometry>
        </mxCell>
        <mxCell id="VERpzVBWQR2P2o2Z3do2-12" value="Nivel intermediacion" style="shape=folder;fontStyle=1;spacingTop=10;tabWidth=40;tabHeight=14;tabPosition=left;html=1;whiteSpace=wrap;verticalAlign=top;" parent="1" vertex="1">
          <mxGeometry x="-280" y="230" width="540" height="130" as="geometry" />
        </mxCell>
        <mxCell id="VERpzVBWQR2P2o2Z3do2-13" value="&amp;lt;&amp;lt;component&amp;gt;&amp;gt;&lt;div&gt;&lt;b&gt;:API ABCall&lt;/b&gt;&lt;/div&gt;" style="html=1;dropTarget=0;whiteSpace=wrap;" parent="1" vertex="1">
          <mxGeometry x="-159.99" y="270" width="310" height="60" as="geometry" />
        </mxCell>
        <mxCell id="VERpzVBWQR2P2o2Z3do2-14" value="" style="shape=module;jettyWidth=8;jettyHeight=4;" parent="VERpzVBWQR2P2o2Z3do2-13" vertex="1">
          <mxGeometry x="1" width="20" height="20" relative="1" as="geometry">
            <mxPoint x="-27" y="7" as="offset" />
          </mxGeometry>
        </mxCell>
        <mxCell id="VERpzVBWQR2P2o2Z3do2-19" value="Logica de Negocio ABCall" style="shape=folder;fontStyle=1;spacingTop=10;tabWidth=40;tabHeight=14;tabPosition=left;html=1;whiteSpace=wrap;verticalAlign=top;" parent="1" vertex="1">
          <mxGeometry x="-280" y="420" width="540" height="420" as="geometry" />
        </mxCell>
        <mxCell id="VERpzVBWQR2P2o2Z3do2-30" value="&amp;lt;&amp;lt;component&amp;gt;&amp;gt;&lt;div&gt;&lt;b&gt;:GestorIncidentes&lt;/b&gt;&lt;/div&gt;" style="html=1;dropTarget=0;whiteSpace=wrap;" parent="1" vertex="1">
          <mxGeometry x="-97.5" y="465" width="185" height="60" as="geometry" />
        </mxCell>
        <mxCell id="VERpzVBWQR2P2o2Z3do2-31" value="" style="shape=module;jettyWidth=8;jettyHeight=4;" parent="VERpzVBWQR2P2o2Z3do2-30" vertex="1">
          <mxGeometry x="1" width="20" height="20" relative="1" as="geometry">
            <mxPoint x="-27" y="7" as="offset" />
          </mxGeometry>
        </mxCell>
        <mxCell id="VERpzVBWQR2P2o2Z3do2-34" value="Persistencia" style="shape=folder;fontStyle=1;spacingTop=10;tabWidth=40;tabHeight=14;tabPosition=left;html=1;whiteSpace=wrap;verticalAlign=top;" parent="1" vertex="1">
          <mxGeometry x="-150" y="890" width="310" height="160" as="geometry" />
        </mxCell>
        <mxCell id="VERpzVBWQR2P2o2Z3do2-38" value="" style="rounded=0;orthogonalLoop=1;jettySize=auto;html=1;endArrow=oval;endFill=0;sketch=0;sourcePerimeterSpacing=0;targetPerimeterSpacing=0;endSize=10;exitX=0.5;exitY=0;exitDx=0;exitDy=0;" parent="1" source="VERpzVBWQR2P2o2Z3do2-30" target="VERpzVBWQR2P2o2Z3do2-39" edge="1">
          <mxGeometry relative="1" as="geometry">
            <mxPoint x="-260" y="405" as="sourcePoint" />
          </mxGeometry>
        </mxCell>
        <mxCell id="VERpzVBWQR2P2o2Z3do2-39" value="" style="ellipse;whiteSpace=wrap;html=1;align=center;aspect=fixed;fillColor=none;strokeColor=none;resizable=0;perimeter=centerPerimeter;rotatable=0;allowArrows=0;points=[];outlineConnect=1;" parent="1" vertex="1">
          <mxGeometry x="-10" y="400" width="10" height="10" as="geometry" />
        </mxCell>
        <mxCell id="VERpzVBWQR2P2o2Z3do2-40" value="" style="rounded=0;orthogonalLoop=1;jettySize=auto;html=1;endArrow=halfCircle;endFill=0;endSize=6;strokeWidth=1;sketch=0;exitX=0.5;exitY=1;exitDx=0;exitDy=0;entryX=0.9;entryY=0.3;entryDx=0;entryDy=0;entryPerimeter=0;" parent="1" source="VERpzVBWQR2P2o2Z3do2-13" target="VERpzVBWQR2P2o2Z3do2-39" edge="1">
          <mxGeometry relative="1" as="geometry">
            <mxPoint x="-90" y="465" as="sourcePoint" />
          </mxGeometry>
        </mxCell>
        <mxCell id="VERpzVBWQR2P2o2Z3do2-45" value="" style="ellipse;whiteSpace=wrap;html=1;align=center;aspect=fixed;fillColor=none;strokeColor=none;resizable=0;perimeter=centerPerimeter;rotatable=0;allowArrows=0;points=[];outlineConnect=1;" parent="1" vertex="1">
          <mxGeometry x="-190" y="390" width="10" height="10" as="geometry" />
        </mxCell>
        <mxCell id="VERpzVBWQR2P2o2Z3do2-51" value="" style="ellipse;whiteSpace=wrap;html=1;align=center;aspect=fixed;fillColor=none;strokeColor=none;resizable=0;perimeter=centerPerimeter;rotatable=0;allowArrows=0;points=[];outlineConnect=1;" parent="1" vertex="1">
          <mxGeometry x="300" y="580" width="10" height="10" as="geometry" />
        </mxCell>
        <mxCell id="VERpzVBWQR2P2o2Z3do2-52" value="&amp;lt;&amp;lt;component&amp;gt;&amp;gt;&lt;div&gt;&lt;b&gt;:DBMS&lt;/b&gt;&lt;/div&gt;" style="html=1;dropTarget=0;whiteSpace=wrap;" parent="1" vertex="1">
          <mxGeometry x="-77.5" y="950" width="140" height="60" as="geometry" />
        </mxCell>
        <mxCell id="VERpzVBWQR2P2o2Z3do2-53" value="" style="shape=module;jettyWidth=8;jettyHeight=4;" parent="VERpzVBWQR2P2o2Z3do2-52" vertex="1">
          <mxGeometry x="1" width="20" height="20" relative="1" as="geometry">
            <mxPoint x="-27" y="7" as="offset" />
          </mxGeometry>
        </mxCell>
        <mxCell id="VERpzVBWQR2P2o2Z3do2-54" value="&amp;lt;&amp;lt;component&amp;gt;&amp;gt;&lt;div&gt;&lt;b&gt;:GestorDeDatos&lt;/b&gt;&lt;/div&gt;" style="html=1;dropTarget=0;whiteSpace=wrap;" parent="1" vertex="1">
          <mxGeometry x="-100" y="730" width="185" height="60" as="geometry" />
        </mxCell>
        <mxCell id="VERpzVBWQR2P2o2Z3do2-55" value="" style="shape=module;jettyWidth=8;jettyHeight=4;" parent="VERpzVBWQR2P2o2Z3do2-54" vertex="1">
          <mxGeometry x="1" width="20" height="20" relative="1" as="geometry">
            <mxPoint x="-27" y="7" as="offset" />
          </mxGeometry>
        </mxCell>
        <mxCell id="VERpzVBWQR2P2o2Z3do2-61" value="" style="ellipse;whiteSpace=wrap;html=1;align=center;aspect=fixed;fillColor=none;strokeColor=none;resizable=0;perimeter=centerPerimeter;rotatable=0;allowArrows=0;points=[];outlineConnect=1;" parent="1" vertex="1">
          <mxGeometry x="107" y="625" width="10" height="10" as="geometry" />
        </mxCell>
        <mxCell id="VERpzVBWQR2P2o2Z3do2-64" value="" style="ellipse;whiteSpace=wrap;html=1;align=center;aspect=fixed;fillColor=none;strokeColor=none;resizable=0;perimeter=centerPerimeter;rotatable=0;allowArrows=0;points=[];outlineConnect=1;" parent="1" vertex="1">
          <mxGeometry x="-250" y="625" width="10" height="10" as="geometry" />
        </mxCell>
        <mxCell id="VERpzVBWQR2P2o2Z3do2-70" value="" style="ellipse;whiteSpace=wrap;html=1;align=center;aspect=fixed;fillColor=none;strokeColor=none;resizable=0;perimeter=centerPerimeter;rotatable=0;allowArrows=0;points=[];outlineConnect=1;" parent="1" vertex="1">
          <mxGeometry x="-550" y="685" width="10" height="10" as="geometry" />
        </mxCell>
        <mxCell id="VERpzVBWQR2P2o2Z3do2-73" value="" style="ellipse;whiteSpace=wrap;html=1;align=center;aspect=fixed;fillColor=none;strokeColor=none;resizable=0;perimeter=centerPerimeter;rotatable=0;allowArrows=0;points=[];outlineConnect=1;" parent="1" vertex="1">
          <mxGeometry x="-585" y="430" width="10" height="10" as="geometry" />
        </mxCell>
        <mxCell id="VERpzVBWQR2P2o2Z3do2-82" value="" style="ellipse;whiteSpace=wrap;html=1;align=center;aspect=fixed;fillColor=none;strokeColor=none;resizable=0;perimeter=centerPerimeter;rotatable=0;allowArrows=0;points=[];outlineConnect=1;" parent="1" vertex="1">
          <mxGeometry x="110" y="220" width="10" height="10" as="geometry" />
        </mxCell>
        <mxCell id="VERpzVBWQR2P2o2Z3do2-85" value="" style="ellipse;whiteSpace=wrap;html=1;align=center;aspect=fixed;fillColor=none;strokeColor=none;resizable=0;perimeter=centerPerimeter;rotatable=0;allowArrows=0;points=[];outlineConnect=1;" parent="1" vertex="1">
          <mxGeometry x="230" y="220" width="10" height="10" as="geometry" />
        </mxCell>
        <mxCell id="VERpzVBWQR2P2o2Z3do2-91" value="" style="ellipse;whiteSpace=wrap;html=1;align=center;aspect=fixed;fillColor=none;strokeColor=none;resizable=0;perimeter=centerPerimeter;rotatable=0;allowArrows=0;points=[];outlineConnect=1;" parent="1" vertex="1">
          <mxGeometry x="-350" y="220" width="10" height="10" as="geometry" />
        </mxCell>
        <mxCell id="VERpzVBWQR2P2o2Z3do2-96" value="" style="ellipse;whiteSpace=wrap;html=1;align=center;aspect=fixed;fillColor=none;strokeColor=none;resizable=0;perimeter=centerPerimeter;rotatable=0;allowArrows=0;points=[];outlineConnect=1;" parent="1" vertex="1">
          <mxGeometry x="-470" y="180" width="10" height="10" as="geometry" />
        </mxCell>
        <mxCell id="VERpzVBWQR2P2o2Z3do2-97" value="" style="rounded=0;orthogonalLoop=1;jettySize=auto;html=1;endArrow=halfCircle;endFill=0;endSize=6;strokeWidth=1;sketch=0;exitX=0.5;exitY=1;exitDx=0;exitDy=0;" parent="1" source="VERpzVBWQR2P2o2Z3do2-54" target="VERpzVBWQR2P2o2Z3do2-99" edge="1">
          <mxGeometry relative="1" as="geometry">
            <mxPoint x="-35" y="735" as="sourcePoint" />
          </mxGeometry>
        </mxCell>
        <mxCell id="VERpzVBWQR2P2o2Z3do2-98" value="" style="rounded=0;orthogonalLoop=1;jettySize=auto;html=1;endArrow=oval;endFill=0;sketch=0;sourcePerimeterSpacing=0;targetPerimeterSpacing=0;endSize=10;exitX=0.5;exitY=0;exitDx=0;exitDy=0;" parent="1" source="VERpzVBWQR2P2o2Z3do2-52" target="VERpzVBWQR2P2o2Z3do2-99" edge="1">
          <mxGeometry relative="1" as="geometry">
            <mxPoint x="-75" y="705" as="sourcePoint" />
          </mxGeometry>
        </mxCell>
        <mxCell id="VERpzVBWQR2P2o2Z3do2-99" value="" style="ellipse;whiteSpace=wrap;html=1;align=center;aspect=fixed;fillColor=none;strokeColor=none;resizable=0;perimeter=centerPerimeter;rotatable=0;allowArrows=0;points=[];outlineConnect=1;" parent="1" vertex="1">
          <mxGeometry x="-12.5" y="870" width="10" height="10" as="geometry" />
        </mxCell>
        <mxCell id="iO0WUkICxMlkICVZuPFk-1" value="&amp;lt;&amp;lt;component&amp;gt;&amp;gt;&lt;div&gt;&lt;b&gt;:GestorIncidentes&lt;/b&gt;&lt;/div&gt;" style="html=1;dropTarget=0;whiteSpace=wrap;" vertex="1" parent="1">
          <mxGeometry x="-235" y="590" width="137.5" height="60" as="geometry" />
        </mxCell>
        <mxCell id="iO0WUkICxMlkICVZuPFk-2" value="" style="shape=module;jettyWidth=8;jettyHeight=4;" vertex="1" parent="iO0WUkICxMlkICVZuPFk-1">
          <mxGeometry x="1" width="20" height="20" relative="1" as="geometry">
            <mxPoint x="-27" y="7" as="offset" />
          </mxGeometry>
        </mxCell>
        <mxCell id="iO0WUkICxMlkICVZuPFk-3" value="&amp;lt;&amp;lt;component&amp;gt;&amp;gt;&lt;div&gt;&lt;b&gt;:GestorIncidentes&lt;/b&gt;&lt;/div&gt;" style="html=1;dropTarget=0;whiteSpace=wrap;" vertex="1" parent="1">
          <mxGeometry x="-75" y="590" width="137.5" height="60" as="geometry" />
        </mxCell>
        <mxCell id="iO0WUkICxMlkICVZuPFk-4" value="" style="shape=module;jettyWidth=8;jettyHeight=4;" vertex="1" parent="iO0WUkICxMlkICVZuPFk-3">
          <mxGeometry x="1" width="20" height="20" relative="1" as="geometry">
            <mxPoint x="-27" y="7" as="offset" />
          </mxGeometry>
        </mxCell>
        <mxCell id="iO0WUkICxMlkICVZuPFk-5" value="&amp;lt;&amp;lt;component&amp;gt;&amp;gt;&lt;div&gt;&lt;b&gt;:GestorIncidentes&lt;/b&gt;&lt;/div&gt;" style="html=1;dropTarget=0;whiteSpace=wrap;" vertex="1" parent="1">
          <mxGeometry x="87.5" y="590" width="137.5" height="60" as="geometry" />
        </mxCell>
        <mxCell id="iO0WUkICxMlkICVZuPFk-6" value="" style="shape=module;jettyWidth=8;jettyHeight=4;" vertex="1" parent="iO0WUkICxMlkICVZuPFk-5">
          <mxGeometry x="1" width="20" height="20" relative="1" as="geometry">
            <mxPoint x="-27" y="7" as="offset" />
          </mxGeometry>
        </mxCell>
        <mxCell id="iO0WUkICxMlkICVZuPFk-7" value="" style="endArrow=classic;html=1;rounded=0;entryX=0.5;entryY=0;entryDx=0;entryDy=0;exitX=0.5;exitY=1;exitDx=0;exitDy=0;" edge="1" parent="1" source="VERpzVBWQR2P2o2Z3do2-30" target="iO0WUkICxMlkICVZuPFk-1">
          <mxGeometry width="50" height="50" relative="1" as="geometry">
            <mxPoint x="-190" y="700" as="sourcePoint" />
            <mxPoint x="-140" y="650" as="targetPoint" />
          </mxGeometry>
        </mxCell>
        <mxCell id="iO0WUkICxMlkICVZuPFk-8" value="" style="endArrow=classic;html=1;rounded=0;exitX=0.5;exitY=1;exitDx=0;exitDy=0;" edge="1" parent="1" source="VERpzVBWQR2P2o2Z3do2-30" target="iO0WUkICxMlkICVZuPFk-3">
          <mxGeometry width="50" height="50" relative="1" as="geometry">
            <mxPoint x="40" y="600" as="sourcePoint" />
            <mxPoint x="90" y="550" as="targetPoint" />
          </mxGeometry>
        </mxCell>
        <mxCell id="iO0WUkICxMlkICVZuPFk-9" value="" style="endArrow=classic;html=1;rounded=0;exitX=0.5;exitY=1;exitDx=0;exitDy=0;entryX=0.5;entryY=0;entryDx=0;entryDy=0;" edge="1" parent="1" source="VERpzVBWQR2P2o2Z3do2-30" target="iO0WUkICxMlkICVZuPFk-5">
          <mxGeometry width="50" height="50" relative="1" as="geometry">
            <mxPoint x="130" y="580" as="sourcePoint" />
            <mxPoint x="180" y="530" as="targetPoint" />
          </mxGeometry>
        </mxCell>
        <mxCell id="iO0WUkICxMlkICVZuPFk-10" value="" style="endArrow=none;dashed=1;html=1;rounded=0;entryX=0.5;entryY=1;entryDx=0;entryDy=0;exitX=0.5;exitY=0;exitDx=0;exitDy=0;" edge="1" parent="1" source="VERpzVBWQR2P2o2Z3do2-54" target="iO0WUkICxMlkICVZuPFk-1">
          <mxGeometry width="50" height="50" relative="1" as="geometry">
            <mxPoint x="-90" y="740" as="sourcePoint" />
            <mxPoint x="-40" y="690" as="targetPoint" />
          </mxGeometry>
        </mxCell>
        <mxCell id="iO0WUkICxMlkICVZuPFk-11" value="" style="endArrow=none;dashed=1;html=1;rounded=0;entryX=0.5;entryY=1;entryDx=0;entryDy=0;exitX=0.5;exitY=0;exitDx=0;exitDy=0;" edge="1" parent="1" source="VERpzVBWQR2P2o2Z3do2-54" target="iO0WUkICxMlkICVZuPFk-3">
          <mxGeometry width="50" height="50" relative="1" as="geometry">
            <mxPoint x="50" y="730" as="sourcePoint" />
            <mxPoint x="100" y="680" as="targetPoint" />
          </mxGeometry>
        </mxCell>
        <mxCell id="iO0WUkICxMlkICVZuPFk-12" value="" style="endArrow=none;dashed=1;html=1;rounded=0;entryX=0.5;entryY=1;entryDx=0;entryDy=0;exitX=0.5;exitY=0;exitDx=0;exitDy=0;" edge="1" parent="1" source="VERpzVBWQR2P2o2Z3do2-54" target="iO0WUkICxMlkICVZuPFk-5">
          <mxGeometry width="50" height="50" relative="1" as="geometry">
            <mxPoint x="100" y="730" as="sourcePoint" />
            <mxPoint x="150" y="680" as="targetPoint" />
          </mxGeometry>
        </mxCell>
        <mxCell id="iO0WUkICxMlkICVZuPFk-13" value="" style="endArrow=classic;html=1;rounded=0;entryX=0.511;entryY=0.084;entryDx=0;entryDy=0;entryPerimeter=0;" edge="1" parent="1" source="VERpzVBWQR2P2o2Z3do2-1" target="VERpzVBWQR2P2o2Z3do2-12">
          <mxGeometry width="50" height="50" relative="1" as="geometry">
            <mxPoint x="-110" y="260" as="sourcePoint" />
            <mxPoint x="-60" y="210" as="targetPoint" />
          </mxGeometry>
        </mxCell>
      </root>
    </mxGraphModel>
  </diagram>
</mxfile>
